<svg id="Layer_3" enable-background="new 0 0 64 64" height="512" viewBox="0 0 64 64" width="512" xmlns="http://www.w3.org/2000/svg"><g><g><path d="m54 52h2v10h-2z" fill="#a67c52"/></g><path d="m13 2h38v60h-38z" fill="#e2e7f6"/><path d="m25 20h14v10h-14z" fill="#5b94ee"/><path d="m25 30h14v10h-14z" fill="#3279ea"/><path d="m25 40h14v10h-14z" fill="#5b94ee"/><path d="m13 20h12v10h-12z" fill="#3279ea"/><path d="m13 30h12v10h-12z" fill="#5b94ee"/><path d="m13 40h12v10h-12z" fill="#3279ea"/><path d="m39 20h12v10h-12z" fill="#3279ea"/><path d="m39 30h12v10h-12z" fill="#5b94ee"/><path d="m39 40h12v10h-12z" fill="#3279ea"/><path d="m24 54h16v8h-16z" fill="#fff"/><g><path d="m31 54h2v8h-2z" fill="#e2e7f6"/></g><ellipse cx="55" cy="45" fill="#6bc13b" rx="7" ry="9"/><g><path d="m8 52h2v10h-2z" fill="#a67c52"/></g><g><path d="m1 61h62v2h-62z" fill="#a9adcc"/></g><path d="m37 9h-3v-3h-4v3h-3v4h3v3h4v-3h3z" fill="#d23f34"/><path d="m60 39c0-.106-.013-.208-.015-.314-1.269-1.657-3.033-2.686-4.985-2.686-3.866 0-7 4.029-7 9 0 3.03 1.169 5.705 2.954 7.336 5.245-1.803 9.046-7.089 9.046-13.336z" fill="#89cd62"/><ellipse cx="9" cy="45" fill="#6bc13b" rx="7" ry="9"/><path d="m14 39c0-.106-.013-.208-.015-.314-1.269-1.657-3.033-2.686-4.985-2.686-3.866 0-7 4.029-7 9 0 3.03 1.169 5.705 2.954 7.336 5.245-1.803 9.046-7.089 9.046-13.336z" fill="#89cd62"/></g></svg>