<svg id="Capa_1" enable-background="new 0 0 512 512" height="512" viewBox="0 0 512 512" width="512" xmlns="http://www.w3.org/2000/svg"><g><g><path clip-rule="evenodd" d="m311.656 254.739-75.955-75.826-53.433 53.461 75.899 75.882 27.198-27.212z" fill="#fff3da" fill-rule="evenodd"/></g><g><path clip-rule="evenodd" d="m246.948 167.66-18.16-18.17c-20.88-20.863-55.019-20.863-75.871 0s-20.852 55.019 0 75.91l18.16 18.17 11.191-11.197 53.432-53.46z" fill="#ffda8f" fill-rule="evenodd"/></g><g><path clip-rule="evenodd" d="m340.979 225.401c20.852-20.891 20.852-55.048 0-75.91-20.88-20.863-54.991-20.863-75.871 0l-18.16 18.17-11.247 11.253 75.956 75.825 11.134-11.168z" fill="#ffda8f" fill-rule="evenodd"/></g><g><path clip-rule="evenodd" d="m258.167 308.256-75.899-75.882-11.191 11.197-18.16 18.17c-20.852 20.891-20.852 55.019 0 75.91 20.852 20.863 54.991 20.863 75.871 0l18.16-18.198z" fill="#ffda8f" fill-rule="evenodd"/></g><g><path clip-rule="evenodd" d="m340.979 337.65c20.852-20.891 20.852-55.019 0-75.91l-18.189-18.17-11.134 11.168-26.291 26.305-27.198 27.212-11.219 11.197 18.16 18.198c20.88 20.863 54.991 20.863 75.871 0z" fill="#ffda8f" fill-rule="evenodd"/></g><g><path clip-rule="evenodd" d="m438.58 243.57c0-105.9-85.787-191.76-191.632-191.76s-191.66 85.86-191.66 191.76 85.815 191.732 191.66 191.732c37.907 0 73.236-10.998 102.984-30.018 7.423-25.937 28.331-46.176 54.651-52.638 21.446-30.983 33.997-68.541 33.997-109.076zm-97.601 18.17c20.852 20.891 20.852 55.019 0 75.91-20.88 20.863-54.991 20.863-75.871 0l-18.16-18.198-18.16 18.198c-20.88 20.863-55.019 20.863-75.871 0-20.852-20.891-20.852-55.019 0-75.91l18.16-18.17-18.16-18.17c-20.852-20.891-20.852-55.048 0-75.91s54.991-20.863 75.871 0l18.16 18.17 18.16-18.17c20.88-20.863 54.991-20.863 75.871 0 20.852 20.863 20.852 55.019 0 75.91l-18.189 18.17z" fill="#e7f9e9" fill-rule="evenodd"/></g><g><path clip-rule="evenodd" d="m480.396 243.57c0-129.002-104.513-233.57-233.448-233.57s-233.448 104.568-233.448 233.57 104.513 233.57 233.448 233.57c37.652 0 73.208-8.929 104.712-24.774-3.003-8.135-4.646-16.951-4.646-26.163 0-7.257 1.02-14.258 2.918-20.919-29.748 19.02-65.077 30.018-102.984 30.018-105.845 0-191.66-85.831-191.66-191.732s85.815-191.76 191.66-191.76 191.632 85.86 191.632 191.76c0 40.535-12.551 78.093-33.997 109.075 5.808-1.446 11.899-2.211 18.16-2.211 10.199 0 19.917 2.013 28.813 5.669 18.386-33.363 28.84-71.743 28.84-112.533z" fill="#b8ecbc" fill-rule="evenodd"/></g><g><path clip-rule="evenodd" d="m498.5 426.203c0-31.634-19.407-58.761-46.945-70.099-8.896-3.657-18.614-5.669-28.813-5.669-6.261 0-12.352.765-18.16 2.211-26.32 6.463-47.228 26.702-54.651 52.638-1.898 6.661-2.918 13.663-2.918 20.919 0 9.212 1.643 18.028 4.646 26.163 10.625 28.97 38.446 49.634 71.084 49.634 41.845 0 75.757-33.93 75.757-75.797z" fill="#ff9c9b" fill-rule="evenodd"/></g><g><path d="m145.845 142.421c-24.797 24.81-24.8 65.203 0 90.049l11.095 11.101-11.1 11.105c-24.778 24.824-24.778 65.215.005 90.044 12.402 12.408 28.697 18.611 44.998 18.611 16.297 0 32.6-6.203 45.014-18.606l.005-.005 11.096-11.102 11.083 11.107c12.407 12.396 28.701 18.595 45 18.594s32.604-6.202 45.018-18.604c24.777-24.824 24.777-65.215-.011-90.049l-11.098-11.087 11.109-11.115c24.794-24.841 24.792-65.234-.01-90.049-24.816-24.793-65.192-24.795-90.013.005l-11.087 11.093-11.092-11.098c-24.832-24.81-65.211-24.807-90.012.006zm89.864 50.63 61.794 61.688-19.195 19.219-.026.026-20.125 20.121-61.747-61.734zm-13.989 137.525c-17.031 17.019-44.723 17.021-61.725.01-17.002-17.033-17.002-44.748-.005-61.776l18.155-18.164c.001-.001.001-.001.002-.002s.001-.001.002-.002l4.122-4.124 61.742 61.729-4.135 4.134c-.098.098-.182.203-.275.304zm112.181-61.771c17.002 17.033 17.002 44.748.01 61.771-17.019 17.006-44.714 17.005-61.725.011l-11.091-11.115 4.143-4.145h.001s.001-.001.001-.001l26.556-26.57.64-.64c.001-.001.002-.002.002-.003l30.373-30.388zm-61.724-112.241c8.511-8.504 19.689-12.755 30.869-12.755 11.176 0 22.354 4.251 30.86 12.75 17.011 17.019 17.009 44.731 0 61.771l-17.9 17.909c-.096.089-.198.17-.29.263l-4.079 4.084-61.789-61.683 4.167-4.169c.001-.001.002-.002.003-.003s.002-.002.003-.003zm-50.462-.004 11.094 11.1-4.181 4.183c-.002.002-.003.003-.005.005s-.003.003-.004.005l-57.541 57.572-11.083-11.089c-17.013-17.045-17.015-44.758-.005-61.776 17.007-17.015 44.698-17.013 61.725 0z"/><path d="m465.136 351.694c16.55-33.397 25.26-70.556 25.26-108.124 0-65.062-25.321-126.228-71.301-172.23-45.98-46.004-107.116-71.34-172.147-71.34s-126.167 25.336-172.147 71.34c-45.979 46.003-71.301 107.169-71.301 172.23s25.322 126.228 71.301 172.23c45.98 46.004 107.117 71.34 172.147 71.34 34.859 0 68.364-7.199 99.766-21.367 14.317 27.441 43.014 46.227 76.028 46.227 47.287 0 85.758-38.488 85.758-85.797 0-31.876-17.49-59.725-43.364-74.509zm-218.188 115.447c-123.21 0-223.448-100.293-223.448-223.57s100.238-223.571 223.448-223.571 223.448 100.293 223.448 223.57c0 34.886-8.188 69.375-23.714 100.29-7.265-2.116-14.921-3.297-22.836-3.398 16.23-29.582 24.734-62.691 24.734-96.892 0-46.252-15.217-89.76-44.006-125.82-27.942-35-67.177-59.988-110.477-70.363-5.365-1.283-10.769 2.023-12.055 7.395-1.287 5.371 2.023 10.768 7.395 12.055 81.925 19.63 139.143 92.306 139.143 176.734 0 35.983-10.434 70.622-30.21 100.416-26.663 7.926-47.922 28.499-56.819 54.744-28.412 17.394-61.041 26.572-94.603 26.572-100.167 0-181.66-81.524-181.66-181.731 0-84.373 57.186-157.049 139.064-176.736 5.37-1.291 8.676-6.69 7.385-12.061-1.292-5.369-6.69-8.678-12.061-7.385-43.274 10.404-82.484 35.405-110.406 70.396-28.773 36.057-43.982 79.553-43.982 125.786 0 111.235 90.464 201.731 201.66 201.731 31.509 0 62.284-7.294 90.12-21.231-.017.711-.054 1.417-.054 2.132 0 7.189.9 14.17 2.572 20.848-29.123 13.322-60.24 20.089-92.638 20.089zm175.794 24.859c-36.243 0-65.729-29.517-65.729-65.797 0-36.265 29.485-65.769 65.729-65.769 36.259 0 65.758 29.504 65.758 65.769 0 36.28-29.499 65.797-65.758 65.797z"/><path d="m453.481 416.203h-20.739v-20.728c0-5.522-4.478-10-10-10s-10 4.478-10 10v20.728h-20.71c-5.522 0-10 4.478-10 10s4.478 10 10 10h20.71v20.755c0 5.522 4.478 10 10 10s10-4.478 10-10v-20.755h20.739c5.522 0 10-4.478 10-10s-4.477-10-10-10z"/><path d="m246.892 61.811h.057c5.523 0 9.972-4.478 9.972-10s-4.505-10-10.028-10-10 4.478-10 10 4.476 10 9.999 10z"/></g></g></svg>