<svg id="Layer_1" height="512" viewBox="0 0 512 512" width="512" xmlns="http://www.w3.org/2000/svg" data-name="Layer 1"><path d="m266.669 145.791v-43.307h-21.338v43.307a5 5 0 0 1 -5 5h-37.307v21.338h37.307a5 5 0 0 1 5 5v124.391h21.338v-124.391a5 5 0 0 1 5-5h37.307v-21.338h-37.307a5 5 0 0 1 -5-5z"/><path d="m374.81 145.825a118.81 118.81 0 0 0 -237.62 0v212.16h237.62zm-204.34 186.152a5 5 0 0 1 -10 0v-15.593a5 5 0 0 1 10 0zm0-36.262a5 5 0 0 1 -10 0v-130.315a5 5 0 0 1 10 0zm-5.5-147.934a5.729 5.729 0 1 1 5.5-5.724 5.622 5.622 0 0 1 -5.5 5.724zm154.006 29.348a5 5 0 0 1 -5 5h-37.307v124.391a5 5 0 0 1 -5 5h-31.338a5 5 0 0 1 -5-5v-124.391h-37.307a5 5 0 0 1 -5-5v-31.338a5 5 0 0 1 5-5h37.307v-43.307a5 5 0 0 1 5-5h31.338a5 5 0 0 1 5 5v43.307h37.307a5 5 0 0 1 5 5z"/><path d="m416 392.985a25.028 25.028 0 0 0 -25-25h-270a25.028 25.028 0 0 0 -25 25v21h320z"/><path d="m66 423.985v61h380v-61zm30 42a5 5 0 0 1 -10 0v-19a5 5 0 0 1 10 0zm30 0a5 5 0 0 1 -10 0v-19a5 5 0 0 1 10 0zm30 0a5 5 0 0 1 -10 0v-19a5 5 0 0 1 10 0zm30 0a5 5 0 0 1 -10 0v-19a5 5 0 0 1 10 0zm30 0a5 5 0 0 1 -10 0v-19a5 5 0 0 1 10 0zm30 0a5 5 0 0 1 -10 0v-19a5 5 0 0 1 10 0zm30 0a5 5 0 0 1 -10 0v-19a5 5 0 0 1 10 0zm30 0a5 5 0 0 1 -10 0v-19a5 5 0 0 1 10 0zm30 0a5 5 0 0 1 -10 0v-19a5 5 0 0 1 10 0zm30 0a5 5 0 0 1 -10 0v-19a5 5 0 0 1 10 0zm30 0a5 5 0 0 1 -10 0v-19a5 5 0 0 1 10 0zm30 0a5 5 0 0 1 -10 0v-19a5 5 0 0 1 10 0z"/></svg>