<?xml version="1.0" encoding="iso-8859-1"?>
<!-- Generator: Adobe Illustrator 19.0.0, SVG Export Plug-In . SVG Version: 6.00 Build 0)  -->
<svg version="1.1" id="Capa_1" xmlns="http://www.w3.org/2000/svg" xmlns:xlink="http://www.w3.org/1999/xlink" x="0px" y="0px"
	 viewBox="0 0 433.679 433.679" style="enable-background:new 0 0 433.679 433.679;" xml:space="preserve">
<g>
	<path style="fill:#00EFD1;" d="M289.982,412.758c-13.464-1.032-26.887,2.461-38.139,9.927c-21.247,13.963-48.761,13.963-70.008,0
		c-10.211-6.81-22.208-10.446-34.482-10.449h-4.18c-24.769,1.231-48.003-12.017-59.559-33.959h-0.522
		c-5.845-12.087-15.603-21.845-27.69-27.69H54.88c-22.145-11.409-35.614-34.674-34.482-59.559l0,0
		c1.032-13.464-2.461-26.887-9.927-38.139c-13.963-21.247-13.963-48.761,0-70.008c6.727-10.25,10.355-22.222,10.449-34.482
		c0-1.045-0.522-2.612-0.522-3.657l0,0c-1.985-25.622,11.611-49.93,34.482-61.649h0.522c12.087-5.845,21.845-15.603,27.69-27.69
		h0.522c11.409-22.145,34.674-35.614,59.559-34.482h0.522c13.464,1.032,26.887-2.461,38.139-9.927
		c21.247-13.963,48.761-13.963,70.008,0c11.38,7.099,24.793,10.223,38.139,8.882h0.522c24.886-1.133,48.15,12.336,59.559,34.482
		h0.522c5.845,12.087,15.603,21.845,27.69,27.69h0.522c22.145,11.409,35.614,34.674,34.482,59.559l0,0
		c-1.032,13.464,2.461,26.887,9.927,38.139c13.963,21.247,13.963,48.761,0,70.008c-6.81,10.211-10.446,22.208-10.449,34.482
		c0,1.045,0.522,2.612,0.522,3.657l0,0c1.985,25.622-11.611,49.93-34.482,61.649h-0.522c-12.087,5.845-21.845,15.603-27.69,27.69
		h-0.522c-11.409,22.145-34.674,35.614-59.559,34.482L289.982,412.758z"/>
	<g>
		<path style="fill:#00ACEA;" d="M142.129,351.109c-1.854-0.024-3.664-0.567-5.225-1.567c-4.83-2.594-6.642-8.612-4.048-13.442
			c0.122-0.226,0.252-0.448,0.391-0.664L282.668,86.75c3.71-4.42,10.301-4.995,14.721-1.285c3.411,2.863,4.632,7.574,3.042,11.734
			l-149.42,248.686C149.257,349.146,145.833,351.161,142.129,351.109z"/>
		<path style="fill:#00ACEA;" d="M148.921,214.227c-29.257,0-53.29-28.212-53.29-63.216s24.033-63.216,53.29-63.216
			s53.29,28.212,53.29,63.216S178.178,214.227,148.921,214.227z M148.921,108.692c-17.763,0-32.392,18.808-32.392,42.318
			s14.629,42.318,32.392,42.318s32.392-18.808,32.392-42.318S166.684,108.692,148.921,108.692z"/>
		<path style="fill:#00ACEA;" d="M284.758,344.839c-29.257,0-53.29-28.212-53.29-63.216s24.033-63.216,53.29-63.216
			c29.257,0,53.29,28.212,53.29,63.216S314.015,344.839,284.758,344.839z M284.758,239.305c-17.763,0-32.392,18.808-32.392,42.318
			c0,23.51,14.629,42.318,32.392,42.318c17.763,0,32.392-18.808,32.392-42.318S302.521,239.305,284.758,239.305L284.758,239.305z"/>
	</g>
</g>
<g>
</g>
<g>
</g>
<g>
</g>
<g>
</g>
<g>
</g>
<g>
</g>
<g>
</g>
<g>
</g>
<g>
</g>
<g>
</g>
<g>
</g>
<g>
</g>
<g>
</g>
<g>
</g>
<g>
</g>
</svg>
